<svg viewBox="1 -80 511.99998 511" xmlns="http://www.w3.org/2000/svg"><path d="m441.992188 86.589844c0 47.550781-83.269532 86.097656-185.992188 86.097656-89.191406 0-163.714844-29.058594-181.800781-67.84375-2.75-5.882812-4.191407-11.996094-4.191407-18.253906 0-47.40625 82.789063-85.871094 185.105469-86.078125.300781-.011719.59375-.011719.886719-.011719 102.722656 0 185.992188 38.546875 185.992188 86.089844zm0 0" fill="#edd464"/><path d="m512 322.714844c-168.59375 37.679687-343.417969 37.679687-512 0 9.320312-70.457032 18.660156-141.03125 28.023438-211.71875.492187-3.707032.984374-7.425782 1.472656-11.148438 3.554687-26.757812 28.308594-45.460937 55.015625-41.511718 113.707031 16.789062 229.269531 16.789062 342.976562 0 26.699219-3.949219 51.460938 14.753906 55.003907 41.511718.492187 3.722656.980468 7.441406 1.472656 11.148438 9.363281 70.6875 18.703125 141.261718 28.035156 211.71875zm0 0" fill="#6dcc98"/><path d="m122.261719 63.277344c-16.726563 6.257812-29.671875 22.246094-32.160157 42.527344-.492187 4.011718-.980468 8.035156-1.472656 12.035156-8.894531 72.445312-17.753906 144.773437-26.605468 216.984375-20.75-3.46875-41.4375-7.511719-62.023438-12.109375 9.320312-70.457032 18.660156-141.03125 28.023438-211.71875.492187-3.707032.984374-7.429688 1.472656-11.148438 3.554687-26.757812 28.308594-45.464844 55.015625-41.511718 12.558593 1.847656 25.148437 3.5 37.75 4.941406zm0 0" fill="#57ad7b"/><path d="m255.113281.511719c-37.773437 1.023437-103.601562 66.382812-103.601562 97.164062 0 9.96875-32.800781 10.71875-77.3125 7.167969-2.75-5.882812-4.191407-11.996094-4.191407-18.253906 0-47.40625 82.789063-85.871094 185.105469-86.078125zm0 0" fill="#d8951e"/><path d="m483.964844 110.996094c-130.539063 25.863281-264.359375 29.300781-395.765625 10.304687-20.125-2.90625-40.1875-6.34375-60.175781-10.304687.492187-3.707032.984374-7.425782 1.472656-11.148438 3.554687-26.757812 28.308594-45.460937 55.015625-41.511718 12.558593 1.847656 25.148437 3.5 37.75 4.941406 101.472656 11.640625 204.082031 9.988281 305.226562-4.941406 26.699219-3.949219 51.460938 14.753906 55.003907 41.511718.492187 3.722656.980468 7.441406 1.472656 11.148438zm0 0" fill="#eaeaea"/><path d="m122.261719 63.277344c-16.726563 6.257812-29.671875 22.246094-32.160157 42.527344-.492187 4.011718-.980468 8.035156-1.472656 12.035156-.148437 1.152344-.28125 2.308594-.429687 3.460937-20.125-2.90625-40.1875-6.34375-60.175781-10.304687.492187-3.707032.984374-7.429688 1.472656-11.148438 3.554687-26.757812 28.308594-45.464844 55.015625-41.511718 12.558593 1.847656 25.148437 3.5 37.75 4.941406zm0 0" fill="#ccc"/><g fill="#eaeaea"><path d="m388.652344 232.144531c0-24.53125-64.308594-44.421875-88.84375-44.421875-24.53125 0 0 19.890625 0 44.421875 0 24.535157-24.53125 44.421875 0 44.421875 24.535156 0 88.84375-19.886718 88.84375-44.421875zm0 0"/><path d="m188.554688 232.144531c0-27.234375-42.042969-49.3125-58.078126-49.3125-16.039062 0 0 22.078125 0 49.3125s-16.039062 49.3125 0 49.3125c16.035157 0 58.078126-22.078125 58.078126-49.3125zm0 0"/><path d="m299.808594 239.980469h-111.253906c-4.328126 0-7.839844-3.507813-7.839844-7.835938s3.511718-7.835937 7.839844-7.835937h111.253906c4.328125 0 7.839844 3.507812 7.839844 7.835937s-3.511719 7.835938-7.839844 7.835938zm0 0"/><path d="m252.125 283.753906c-1.882812 0-3.769531-.675781-5.273438-2.042968-3.199218-2.914063-3.429687-7.871094-.515624-11.074219 7.90625-8.683594 12.628906-23.074219 12.628906-38.492188s-4.722656-29.808593-12.628906-38.492187c-2.914063-3.199219-2.683594-8.15625.515624-11.070313 3.199219-2.914062 8.15625-2.679687 11.070313.519531 10.625 11.664063 16.714844 29.539063 16.714844 49.042969 0 19.503907-6.089844 37.382813-16.714844 49.046875-1.546875 1.699219-3.667969 2.5625-5.796875 2.5625zm0 0"/><path d="m211.800781 283.753906c-1.882812 0-3.773437-.675781-5.273437-2.042968-3.199219-2.914063-3.433594-7.871094-.519532-11.074219 7.910157-8.683594 12.628907-23.074219 12.628907-38.492188s-4.71875-29.808593-12.628907-38.492187c-2.914062-3.199219-2.679687-8.15625.519532-11.070313 3.199218-2.914062 8.15625-2.679687 11.070312.519531 10.621094 11.664063 16.714844 29.539063 16.714844 49.042969 0 19.503907-6.09375 37.382813-16.714844 49.046875-1.546875 1.699219-3.667968 2.5625-5.796875 2.5625zm0 0"/></g></svg>