<?xml version="1.0" encoding="iso-8859-1"?>
<!-- Generator: Adobe Illustrator 19.0.0, SVG Export Plug-In . SVG Version: 6.00 Build 0)  -->
<svg version="1.1" id="Capa_1" xmlns="http://www.w3.org/2000/svg" xmlns:xlink="http://www.w3.org/1999/xlink" x="0px" y="0px"
	 viewBox="0 0 512 512" style="enable-background:new 0 0 512 512;" xml:space="preserve">
<path style="fill:#E3E3E3;" d="M512,145.616v307.509c0,8.705-7.057,15.762-15.762,15.762H15.762C7.057,468.887,0,461.83,0,453.125
	V58.875c0-8.705,7.057-15.762,15.762-15.762h393.735l35.006,35.006l31.74,31.74L512,145.616z"/>
<g>
	<path style="fill:#C8C8C8;" d="M512,428.236v24.889c0,8.705-7.057,15.762-15.762,15.762H15.762C7.057,468.887,0,461.83,0,453.125
		v-24.889c0,8.705,7.057,15.762,15.762,15.762h480.476C504.943,443.998,512,436.941,512,428.236z"/>
	<path style="fill:#C8C8C8;" d="M512,145.616v12.362h-86.741c-15.504,0-28.124-12.62-28.124-28.124V43.113h12.362L512,145.616z"/>
	<path style="fill:#C8C8C8;" d="M476.242,109.858v75.698c0,6.82-5.532,12.362-12.362,12.362H48.12
		c-6.83,0-12.362-5.542-12.362-12.362V90.481c0-6.83,5.532-12.362,12.362-12.362h396.383L476.242,109.858z"/>
</g>
<path style="fill:#159BFF;" d="M430.267,90.479H54.3c-3.414,0-6.181,2.767-6.181,6.181v82.712c0,3.414,2.767,6.181,6.181,6.181
	h403.4c3.414,0,6.181-2.767,6.181-6.181v-55.279L430.267,90.479z"/>
<g>
	<path style="fill:#E3E3E3;" d="M189.896,110.093c-4.268,0-7.726,3.459-7.726,7.726v21.017l-26.022-26.437
		c-2.199-2.235-5.532-2.92-8.435-1.73c-2.902,1.189-4.798,4.014-4.798,7.15v39.88c0,4.267,3.459,7.726,7.726,7.726
		c4.268,0,7.726-3.459,7.726-7.726v-21.017l26.022,26.437c1.481,1.505,3.476,2.307,5.508,2.306c0.985,0,1.979-0.188,2.927-0.576
		c2.902-1.189,4.798-4.014,4.798-7.15v-39.88C197.623,113.552,194.164,110.093,189.896,110.093z"/>
	<path style="fill:#E3E3E3;" d="M242.207,125.546c4.268,0,7.726-3.459,7.726-7.726s-3.459-7.726-7.726-7.726h-28.229
		c-4.268,0-7.726,3.459-7.726,7.726v39.88c0,4.267,3.459,7.726,7.726,7.726h28.229c4.268,0,7.726-3.459,7.726-7.726
		s-3.459-7.726-7.726-7.726h-20.503v-4.487h6.388c4.268,0,7.726-3.459,7.726-7.726s-3.459-7.726-7.726-7.726h-6.388v-4.487h20.503
		V125.546z"/>
	<path style="fill:#E3E3E3;" d="M314.652,110.266c-4.161-0.898-8.28,1.756-9.178,5.928l-4.779,22.211l-5.789-8.533
		c-1.439-2.12-3.833-3.389-6.394-3.389s-4.956,1.269-6.394,3.389l-5.789,8.533l-4.779-22.211c-0.898-4.172-5.017-6.827-9.178-5.928
		c-4.172,0.897-6.826,5.007-5.929,9.179l8.58,39.88c0.651,3.024,3.042,5.369,6.078,5.959c3.038,0.59,6.133-0.687,7.869-3.247
		l9.54-14.064l9.54,14.064c1.456,2.145,3.864,3.389,6.393,3.389c0.489,0,0.984-0.047,1.476-0.142
		c3.036-0.591,5.428-2.935,6.078-5.959l8.58-39.88C321.478,115.273,318.824,111.163,314.652,110.266z"/>
	<path style="fill:#E3E3E3;" d="M351.388,130.033h-8.29c-1.237,0-2.243-1.007-2.243-2.243c0-1.237,1.006-2.244,2.243-2.244h18.26
		c4.268,0,7.726-3.459,7.726-7.726s-3.459-7.726-7.726-7.726h-18.26c-9.758,0-17.696,7.939-17.696,17.697
		s7.939,17.696,17.696,17.696h8.29c1.237,0,2.243,1.007,2.243,2.244s-1.006,2.243-2.243,2.243h-18.26
		c-4.268,0-7.726,3.459-7.726,7.726s3.459,7.726,7.726,7.726h18.26c9.758,0,17.696-7.939,17.696-17.696
		C369.085,137.972,361.146,130.033,351.388,130.033z"/>
</g>
<path style="fill:#AAAAAA;" d="M512,145.616h-86.737c-8.707,0-15.766-7.059-15.766-15.766V43.113L512,145.616z"/>
<path style="fill:#C8C8C8;" d="M35.758,324.717V218.44c0-6.827,5.535-12.362,12.362-12.362h220.549
	c6.827,0,12.362,5.535,12.362,12.362v106.277c0,6.827-5.535,12.362-12.362,12.362H48.12
	C41.292,337.079,35.758,331.544,35.758,324.717z"/>
<path style="fill:#89BF4A;" d="M268.669,224.621v93.915c0,3.414-2.767,6.181-6.181,6.181H54.301c-3.414,0-6.181-2.767-6.181-6.181
	v-93.915c0-3.414,2.767-6.181,6.181-6.181h208.187C265.902,218.44,268.669,221.207,268.669,224.621z"/>
<path style="fill:#FC4747;" d="M237.291,324.718H79.498c0-43.575,35.333-78.884,78.884-78.884
	C201.958,245.834,237.291,281.143,237.291,324.718z"/>
<path style="fill:#FFDA2C;" d="M196.991,324.717h-77.193c0-21.317,17.285-38.591,38.591-38.591
	C179.706,286.126,196.991,303.4,196.991,324.717z"/>
<g>
	<path style="fill:#AAAAAA;" d="M136.321,373.735H80.766c-4.268,0-7.726-3.459-7.726-7.726s3.459-7.726,7.726-7.726h55.555
		c4.268,0,7.726,3.459,7.726,7.726C144.047,370.276,140.589,373.735,136.321,373.735z"/>
	<path style="fill:#AAAAAA;" d="M56.138,373.735H48.12c-4.268,0-7.726-3.459-7.726-7.726s3.459-7.726,7.726-7.726h8.018
		c4.268,0,7.726,3.459,7.726,7.726C63.864,370.276,60.405,373.735,56.138,373.735z"/>
	<path style="fill:#AAAAAA;" d="M136.321,401.226H48.12c-4.268,0-7.726-3.459-7.726-7.726s3.459-7.726,7.726-7.726h88.201
		c4.268,0,7.726,3.459,7.726,7.726S140.589,401.226,136.321,401.226z"/>
	<path style="fill:#AAAAAA;" d="M136.321,428.718H123.72c-4.268,0-7.726-3.459-7.726-7.726s3.459-7.726,7.726-7.726h12.601
		c4.268,0,7.726,3.459,7.726,7.726C144.047,425.259,140.589,428.718,136.321,428.718z"/>
	<path style="fill:#AAAAAA;" d="M100.811,428.718H48.12c-4.268,0-7.726-3.459-7.726-7.726s3.459-7.726,7.726-7.726h52.691
		c4.268,0,7.726,3.459,7.726,7.726C108.537,425.259,105.078,428.718,100.811,428.718z"/>
	<path style="fill:#AAAAAA;" d="M268.673,373.735h-55.555c-4.268,0-7.726-3.459-7.726-7.726s3.459-7.726,7.726-7.726h55.555
		c4.268,0,7.726,3.459,7.726,7.726C276.399,370.276,272.941,373.735,268.673,373.735z"/>
	<path style="fill:#AAAAAA;" d="M188.49,373.735h-8.018c-4.268,0-7.726-3.459-7.726-7.726s3.459-7.726,7.726-7.726h8.018
		c4.268,0,7.726,3.459,7.726,7.726C196.216,370.276,192.758,373.735,188.49,373.735z"/>
	<path style="fill:#AAAAAA;" d="M268.673,401.226h-88.201c-4.268,0-7.726-3.459-7.726-7.726s3.459-7.726,7.726-7.726h88.201
		c4.268,0,7.726,3.459,7.726,7.726S272.941,401.226,268.673,401.226z"/>
	<path style="fill:#AAAAAA;" d="M268.673,428.718h-12.601c-4.268,0-7.726-3.459-7.726-7.726s3.459-7.726,7.726-7.726h12.601
		c4.268,0,7.726,3.459,7.726,7.726C276.399,425.259,272.941,428.718,268.673,428.718z"/>
	<path style="fill:#AAAAAA;" d="M233.163,428.718h-52.691c-4.268,0-7.726-3.459-7.726-7.726s3.459-7.726,7.726-7.726h52.691
		c4.268,0,7.726,3.459,7.726,7.726C240.889,425.259,237.431,428.718,233.163,428.718z"/>
	<path style="fill:#AAAAAA;" d="M463.88,226.169H322.438c-4.268,0-7.726-3.459-7.726-7.726s3.459-7.726,7.726-7.726H463.88
		c4.268,0,7.726,3.459,7.726,7.726S468.148,226.169,463.88,226.169z"/>
	<path style="fill:#AAAAAA;" d="M463.88,253.659H322.438c-4.268,0-7.726-3.459-7.726-7.726s3.459-7.726,7.726-7.726H463.88
		c4.268,0,7.726,3.459,7.726,7.726C471.607,250.2,468.148,253.659,463.88,253.659z"/>
	<path style="fill:#AAAAAA;" d="M463.88,281.151h-93.323c-4.268,0-7.726-3.459-7.726-7.726s3.459-7.726,7.726-7.726h93.323
		c4.268,0,7.726,3.459,7.726,7.726C471.607,277.692,468.148,281.151,463.88,281.151z"/>
	<path style="fill:#AAAAAA;" d="M343.055,281.151h-20.618c-4.268,0-7.726-3.459-7.726-7.726s3.459-7.726,7.726-7.726h20.618
		c4.268,0,7.726,3.459,7.726,7.726C350.782,277.692,347.323,281.151,343.055,281.151z"/>
	<path style="fill:#AAAAAA;" d="M463.88,330.153H322.438c-4.268,0-7.726-3.459-7.726-7.726s3.459-7.726,7.726-7.726H463.88
		c4.268,0,7.726,3.459,7.726,7.726S468.148,330.153,463.88,330.153z"/>
	<path style="fill:#AAAAAA;" d="M463.88,373.735h-16.039c-4.268,0-7.726-3.459-7.726-7.726s3.459-7.726,7.726-7.726h16.039
		c4.268,0,7.726,3.459,7.726,7.726C471.607,370.276,468.148,373.735,463.88,373.735z"/>
	<path style="fill:#AAAAAA;" d="M418.677,373.735h-96.239c-4.268,0-7.726-3.459-7.726-7.726s3.459-7.726,7.726-7.726h96.239
		c4.268,0,7.726,3.459,7.726,7.726C426.403,370.276,422.945,373.735,418.677,373.735z"/>
	<path style="fill:#AAAAAA;" d="M463.88,401.178H322.438c-4.268,0-7.726-3.459-7.726-7.726s3.459-7.726,7.726-7.726H463.88
		c4.268,0,7.726,3.459,7.726,7.726C471.607,397.718,468.148,401.178,463.88,401.178z"/>
	<path style="fill:#AAAAAA;" d="M463.88,428.718H322.438c-4.268,0-7.726-3.459-7.726-7.726s3.459-7.726,7.726-7.726H463.88
		c4.268,0,7.726,3.459,7.726,7.726C471.607,425.259,468.148,428.718,463.88,428.718z"/>
</g>
<g>
</g>
<g>
</g>
<g>
</g>
<g>
</g>
<g>
</g>
<g>
</g>
<g>
</g>
<g>
</g>
<g>
</g>
<g>
</g>
<g>
</g>
<g>
</g>
<g>
</g>
<g>
</g>
<g>
</g>
</svg>
