<?xml version="1.0" encoding="iso-8859-1"?>
<!-- Generator: Adobe Illustrator 19.0.0, SVG Export Plug-In . SVG Version: 6.00 Build 0)  -->
<svg version="1.1" id="Capa_1" xmlns="http://www.w3.org/2000/svg" xmlns:xlink="http://www.w3.org/1999/xlink" x="0px" y="0px"
	 viewBox="0 0 512 512" style="enable-background:new 0 0 512 512;" xml:space="preserve">
<rect x="240" y="124" style="fill:#FDC572;" width="32" height="128"/>
<rect x="240" y="124" style="fill:#E8A848;" width="32" height="48"/>
<path style="fill:#FDC572;" d="M296,60c-16.7,0-31.401,8.532-40,21.471C247.402,68.532,232.7,60,216,60c-26.51,0-48,21.49-48,48
	s21.49,48,48,48c16.7,0,31.401-8.532,40-21.471C264.599,147.468,279.3,156,296,156c26.51,0,48-21.49,48-48S322.51,60,296,60z
	 M216,124c-8.836,0-16-7.164-16-16s7.164-16,16-16s16,7.164,16,16S224.837,124,216,124z M296,124c-8.836,0-16-7.164-16-16
	s7.164-16,16-16s16,7.164,16,16S304.837,124,296,124z"/>
<path style="fill:#8B8A7B;" d="M468,452H224c-4.418,0-8-3.582-8-8s3.582-8,8-8h244c15.439,0,28-12.561,28-28s-12.561-28-28-28h-44
	c-4.418,0-8-3.582-8-8s3.582-8,8-8h44c24.262,0,44,19.738,44,44S492.262,452,468,452z"/>
<path style="fill:#53D9ED;" d="M431.754,370.03c-13.338-52.49-40.119-93.953-75.413-116.75
	c-21.937-14.168-47.898-22.521-77.165-24.826c-28.795-2.268-59.461,1.424-91.147,10.975
	c-66.7,20.105-132.789,65.335-186.096,127.356c-2.037,2.371-2.508,5.712-1.203,8.553S4.874,380,8,380h416
	c2.469,0,4.8-1.14,6.315-3.089S432.362,372.423,431.754,370.03z"/>
<path style="fill:#3DC9D9;" d="M431.754,370.03c-13.338-52.49-40.119-93.953-75.413-116.75
	c-9.658-6.238-20.098-11.345-31.254-15.309c34.923,22.897,61.425,64.134,74.668,116.252c0.607,2.393,0.077,4.932-1.438,6.881
	s-3.847,3.089-6.315,3.089H4.196c-0.754,0.864-1.514,1.72-2.263,2.591c-2.037,2.371-2.508,5.712-1.203,8.553S4.874,380,8,380h416
	c2.469,0,4.8-1.14,6.315-3.089S432.362,372.423,431.754,370.03z"/>
<path style="fill:#98E8F4;" d="M152,284c-22.056,0-40,17.944-40,40c0,4.418,3.582,8,8,8h64c4.418,0,8-3.582,8-8
	C192,301.944,174.056,284,152,284z"/>
<circle style="fill:#7A7A69;" cx="80.5" cy="340.5" r="7.5"/>
<g>
</g>
<g>
</g>
<g>
</g>
<g>
</g>
<g>
</g>
<g>
</g>
<g>
</g>
<g>
</g>
<g>
</g>
<g>
</g>
<g>
</g>
<g>
</g>
<g>
</g>
<g>
</g>
<g>
</g>
</svg>
