<svg height="512pt" viewBox="-57 0 512 512" width="512pt" xmlns="http://www.w3.org/2000/svg"><path d="m49.304688 92.289062h211.5625v35.371094h-211.5625zm0 0" fill="#d8dce5"/><path d="m49.304688 92.289062h30.90625v35.371094h-30.90625zm0 0" fill="#c3c8d1"/><path d="m261.84375 125.34375h-213.511719c-26.578125 0-48.332031 21.746094-48.332031 48.332031v289.992188c0 26.582031 21.75 48.332031 48.332031 48.332031h213.511719c26.582031 0 48.332031-21.75 48.332031-48.332031 0-3.929688 0-281.628907 0-289.992188 0-26.585937-21.753906-48.332031-48.332031-48.332031zm0 0" fill="#e4eaf8"/><path d="m30.90625 463.667969c0-4.894531 0-281.765625 0-289.992188 0-26.585937 21.753906-48.332031 48.332031-48.332031h-30.90625c-26.578125 0-48.332031 21.746094-48.332031 48.332031v289.992188c0 26.582031 21.75 48.332031 48.332031 48.332031h30.90625c-26.582031 0-48.332031-21.75-48.332031-48.332031zm0 0" fill="#d8dce5"/><path d="m270.164062 66.503906v-49.507812c0-9.347656-7.648437-16.996094-16.996093-16.996094h-196.160157c-9.351562 0-16.996093 7.648438-16.996093 16.996094v49.507812zm0 0" fill="#00c3ff"/><path d="m87.914062 0h-30.90625c-9.347656 0-16.996093 7.648438-16.996093 16.996094v49.507812h30.90625v-49.507812c0-9.347656 7.648437-16.996094 16.996093-16.996094zm0 0" fill="#00aaf0"/><path d="m253.074219 214.421875c0-.140625-2.664063-1.175781-5.304688-1.175781-59.449219 0-91.441406 0-185.363281 0-3.128906 0-4.273438.917968-5.304688 1.175781-4.378906 2.023437-7.441406 6.453125-7.441406 11.570313v185.359374c0 7.011719 5.738282 12.75 12.746094 12.75h185.363281c7.007813 0 12.746094-5.738281 12.746094-12.75 0-8.992187 0-178.257812 0-185.359374 0-5.117188-3.066406-9.546876-7.441406-11.570313zm0 0" fill="#f9d68f"/><path d="m80.566406 411.351562c0-5.945312 0-173.386718 0-185.359374 0-5.117188 3.0625-9.546876 7.441406-11.570313 1.03125-.257813 2.175782-1.175781 5.304688-1.175781-9.535156 0-19.78125 0-30.90625 0-3.128906 0-4.273438.917968-5.304688 1.175781-4.378906 2.023437-7.441406 6.453125-7.441406 11.570313v185.359374c0 7.011719 5.738282 12.75 12.746094 12.75h30.90625c-7.007812 0-12.746094-5.738281-12.746094-12.75zm0 0" fill="#ffc850"/><path d="m193.058594 316.507812-34.59375-64.96875c-1.441406-2.703124-5.316406-2.703124-6.757813 0l-34.59375 64.96875c-15.253906 28.65625 5.511719 63.238282 37.972657 63.238282 32.464843 0 53.230468-34.582032 37.972656-63.238282zm0 0" fill="#ffc850"/><path d="m148.023438 316.511719 22.515624-42.292969-12.074218-22.675781c-1.4375-2.707031-5.316406-2.707031-6.753906 0l-34.59375 64.96875c-15.257813 28.652343 5.507812 63.234375 37.96875 63.234375 5.535156 0 10.71875-1.023438 15.453124-2.835938-23.03125-8.804687-35.171874-36.632812-22.515624-60.398437zm0 0" fill="#feb644"/><path d="m273.171875 64.441406h-236.171875c-8.40625 0-15.222656 6.816406-15.222656 15.226563 0 8.410156 6.816406 15.226562 15.222656 15.226562h236.171875c8.410156 0 15.226563-6.816406 15.226563-15.226562 0-8.410157-6.816407-15.226563-15.226563-15.226563zm0 0" fill="#00aaf0"/><path d="m273.171875 75.835938h-236.171875c-4.796875 0-9.074219-2.226563-11.863281-5.699219-2.097657 2.609375-3.363281 5.921875-3.363281 9.53125 0 8.410156 6.820312 15.226562 15.226562 15.226562h236.171875c8.410156 0 15.226563-6.816406 15.226563-15.226562 0-3.609375-1.261719-6.921875-3.363282-9.53125-2.789062 3.472656-7.0625 5.699219-11.863281 5.699219zm0 0" fill="#059adb"/><path d="m354.023438 349.363281c-7.292969 0-126.671876 0-133.964844 0-22.457032 0-40.660156 18.203125-40.660156 40.660157 0 22.453124 18.203124 40.65625 40.660156 40.65625h133.964844c22.453124 0 40.65625-18.203126 40.65625-40.65625 0-22.457032-18.203126-40.660157-40.65625-40.660157zm0 0" fill="#feb644"/><path d="m354.023438 399.773438c-7.292969 0-126.671876 0-133.964844 0-16.984375 0-31.527344-10.414063-37.613282-25.207032-1.957031 4.765625-3.046874 9.984375-3.046874 15.457032 0 22.453124 18.203124 40.65625 40.660156 40.65625h133.964844c22.453124 0 40.660156-18.203126 40.660156-40.65625 0-5.472657-1.089844-10.691407-3.050782-15.457032-6.082031 14.792969-20.628906 25.207032-37.609374 25.207032zm0 0" fill="#f9972d"/><path d="m269.851562 430.789062h34.375v-81.316406c-11.230468 0-23.140624 0-34.375 0zm0 0" fill="#f9972d"/><path d="m269.851562 430.789062h34.375v-31.015624c-11.230468 0-23.140624 0-34.375 0zm0 0" fill="#ef8720"/><path d="m386.289062 319.882812c-5.15625-5.15625-89.570312-89.570312-94.726562-94.730468-15.878906-15.875-41.625-15.878906-57.503906 0-15.875 15.878906-15.875 41.625 0 57.503906 5.15625 5.15625 89.570312 89.566406 94.726562 94.726562 15.878906 15.878907 41.625 15.878907 57.503906 0 15.875-15.878906 15.875-41.625 0-57.5zm0 0" fill="#feb644"/><path d="m359.695312 377.382812c-5.160156-5.160156-89.574218-89.574218-94.726562-94.730468-15.878906-15.875-15.878906-41.621094-.003906-57.5 3.929687-3.925782 8.460937-6.878906 13.296875-8.863282-14.714844-6.039062-32.25-3.085937-44.203125 8.863282-15.878906 15.878906-15.878906 41.621094 0 57.5 5.15625 5.15625 89.570312 89.570312 94.726562 94.730468 11.953125 11.949219 29.492188 14.902344 44.207032 8.863282-4.835938-1.984375-9.371094-4.9375-13.296876-8.863282zm0 0" fill="#f9972d"/><path d="m269.195312 317.941406c7.941407 7.941406 16.363282 16.363282 24.304688 24.304688l57.5-57.5c-7.941406-7.941406-16.363281-16.363282-24.304688-24.304688zm0 0" fill="#f9972d"/><path d="m269.195312 317.941406c7.941407 7.941406 16.363282 16.363282 24.304688 24.304688l15.570312-15.570313c-7.941406-7.941406-16.363281-16.363281-24.304687-24.304687zm0 0" fill="#ef8720"/><path d="m354.023438 430.601562c-7.292969 0-126.671876 0-133.964844 0-22.457032 0-40.660156 18.222657-40.660156 40.699219 0 22.476563 18.203124 40.699219 40.660156 40.699219h133.964844c22.453124 0 40.65625-18.222656 40.65625-40.699219 0-22.476562-18.203126-40.699219-40.65625-40.699219zm0 0" fill="#feb644"/><path d="m354.023438 481.09375c-7.292969 0-126.671876 0-133.964844 0-16.988282 0-31.539063-10.433594-37.617188-25.246094-1.957031 4.765625-3.042968 9.980469-3.042968 15.453125 0 22.476563 18.203124 40.699219 40.660156 40.699219h133.964844c22.453124 0 40.660156-18.222656 40.660156-40.699219 0-5.472656-1.085938-10.6875-3.042969-15.453125-6.082031 14.8125-20.628906 25.246094-37.617187 25.246094zm0 0" fill="#f9972d"/><path d="m269.851562 512h34.375v-81.398438c-11.230468 0-23.140624 0-34.375 0zm0 0" fill="#f9972d"/><path d="m269.851562 512h34.375v-31.222656c-11.230468 0-23.140624 0-34.375 0zm0 0" fill="#ef8720"/></svg>