<?xml version="1.0" encoding="utf-8"?>
<!-- Generator: Adobe Illustrator 22.1.0, SVG Export Plug-In . SVG Version: 6.00 Build 0)  -->
<svg version="1.1" id="Слой_1" xmlns="http://www.w3.org/2000/svg" xmlns:xlink="http://www.w3.org/1999/xlink" x="0px" y="0px"
	 viewBox="0 0 167 198" style="enable-background:new 0 0 167 198;" xml:space="preserve">
<style type="text/css">
	.st0{fill-rule:evenodd;clip-rule:evenodd;fill:#FBB731;}
	.st1{fill-rule:evenodd;clip-rule:evenodd;fill:#FFFFFF;}
	.st2{fill-rule:evenodd;clip-rule:evenodd;fill:#514736;}
	.st3{fill-rule:evenodd;clip-rule:evenodd;fill:#296635;}
	.st4{fill-rule:evenodd;clip-rule:evenodd;fill:#F48B31;}
	.st5{fill-rule:evenodd;clip-rule:evenodd;fill:#EF7030;}
	.st6{fill-rule:evenodd;clip-rule:evenodd;fill:#C2BFDF;}
	.st7{fill-rule:evenodd;clip-rule:evenodd;fill:#79749C;}
	.st8{fill-rule:evenodd;clip-rule:evenodd;fill:#B0ACCF;}
</style>
<path class="st0" d="M130.4,9.4c-9.9-4.5-60.1-1.1-69.6,5.8c-3.2-0.2-11.3-6-18.4-6.6c-3.2,12,2.2,24.1,6,29.5
	c-5.8,11.5-12.1,83.5,7.9,114.5c0.5,0.7,0.7,0.8,1.1,1.7c-12-2.3-17.9-9.6-32.5-8c-20.8,2.3-28.4,22.3-17.4,41.7
	c7.5,13.2,23,13,24.1-2c0-3.5-2.9-7.1-2.3-8.5c1.9-4.8,6.3-2.7,13.2,0.6c19.2,10,37.8,0,42-6.1c0.8-0.1,6.9,0.1,7.7,0.2
	c0.4,1.7-0.2,7,2.3,6.8c1.7,0.9,5.1,0,4.7-1.1h1c0,2.3-2.5,1.3,0.5,1c1.8-1.8,0.6-4.6,0.4-6.7l3.8,0c0,1.8,0,6.1,2,6
	c2.2-0.1,0.5-3.9,0.6-6c18.9-4.5,43,7.6,48.2-30.1c5.2-37.8,7.9-87.5-9.5-113.9c2.7-5.6,3-19.5,0.7-28.1
	C140.4,1.8,135.4,7.5,130.4,9.4z"/>
<path class="st1" d="M116.8,51c-0.4-3.4,0.2-6.6,1.7-8.9l15.3,10.7c-0.3,1.3-0.8,2.5-1.4,3.4C125.8,64.8,118,60.2,116.8,51z"/>
<path class="st1" d="M93.1,60.6c-4.6,5-8.5,3.4-12.5-0.6c-1.1-1.2-1.8-3.5-1.7-6l14-9.8c0.6,0.5,1,1,1.4,1.5
	C96.8,49.3,96.2,57.3,93.1,60.6z"/>
<path class="st2" d="M113.9,61.7c1.3,1.1-0.8,3.7-1.8,5c-0.2,2.2,0.7,9.6,0.5,13.6c-0.2,3.1-1.6,2.7-1.8,0.3
	c-0.3-2.4-0.2-7.2-0.3-8.5c-1.2,2.2-3.1,8.9-4.6,10.8c-2.3,3-2.3,1-1.4-1.4c1.3-3.6,4.9-12.1,5.4-14.7c-2-0.9-5.5-3.3-4.2-5.1
	C106.2,61.3,113.3,61.6,113.9,61.7z"/>
<path class="st3" d="M129.5,57.7c0-4-4.7-5.6-4.9,0.2C124.5,62.7,129.5,63,129.5,57.7z"/>
<path class="st3" d="M89.7,57.5c-2,0.4-2.4,1.5-2.4,3.7c0,2,0.6,3.4,2.8,3.2C93.3,64,93.3,56.8,89.7,57.5z"/>
<path class="st4" d="M111.8,7.4l1.5,14l8.8-13.6C119.2,7.5,115.7,7.4,111.8,7.4L111.8,7.4z M81.5,9.6l7.9,12.6L70.7,11.6
	C73.9,10.8,77.6,10.1,81.5,9.6L81.5,9.6z M89.3,8.6l16.3,22.7l-0.1-23.8C100.3,7.7,94.7,8.1,89.3,8.6z"/>
<path class="st4" d="M158.9,108.2c-5.6,4.5-14.8,8.6-19,10.1c4.5,1,12.6,0.2,18.4-1.1C158.5,114.2,158.7,111.2,158.9,108.2
	L158.9,108.2z M42.7,82.8c5.7,4.5,15.1,8.6,19.5,10c-4.8,1.2-13.6,0.4-19.4-1.1C42.6,88.7,42.6,85.7,42.7,82.8L42.7,82.8z
	 M44.3,113.7c5.7,3.8,13.4,7.1,17.2,8.4c-3.9,1-10.5,0.6-16-0.4C45,119.1,44.6,116.4,44.3,113.7L44.3,113.7z M42.9,97.8
	c5.7,4.3,14.7,8.2,18.9,9.6c-4.5,1.1-12.5,0.5-18.3-0.8C43.3,103.6,43.1,100.7,42.9,97.8L42.9,97.8z M159,77.8
	c-5.4,4.9-15.7,9.6-20.3,11.2c5.2,1.2,14.9,0,20.6-1.7C159.3,84.1,159.2,80.9,159,77.8L159,77.8z M159.4,92.5
	c-5.5,4.8-15.6,9.5-20.1,11c4.9,1.1,14.1,0.1,19.9-1.5C159.3,98.9,159.4,95.7,159.4,92.5z"/>
<path class="st5" d="M5,183.1c0.7,1.7,1.5,3.4,2.4,5.1c7.5,13.2,23,13,24.1-2c0-2.6-1.6-5.2-2.2-7l-1.8-0.6l-1-5.9l-2.7,7.3
	l-4.9-6.4l-3.9,6.6l-6.4-8.8L5,183.1z"/>
<path class="st6" d="M162.8,189.1c-14.5,5.8-48.5,6.3-62.6,0.1c-2-0.9-4.4-2-3.5-4.7c3.4-10.9,3.2-13.7,5.6-19.5
	c3.9-9.3,10.1-12.9,29.8-12.9c19.8,0,26,3.6,29.8,13c2.4,5.8,1.7,8.8,5,19.4C167.4,186.4,165.8,187.9,162.8,189.1z"/>
<path class="st7" d="M132,153.6c12.6,0,22.8,2.7,22.8,5.9c0,3.3-10.2,5.9-22.8,5.9s-22.8-2.7-22.8-5.9
	C109.3,156.2,119.5,153.6,132,153.6z"/>
<path class="st8" d="M162.8,189.1c-10,4-29.2,5.5-44.9,4c-7-0.7-10.5-4.1-14.9-6c-7.6-3.3-0.3-18.6,2.3-27.3
	c-9.8,33.9,48.3,29,60.4,20.7c0.3,1.2,0.7,2.6,1.2,4.2C167.4,186.4,165.8,187.9,162.8,189.1z"/>
</svg>
