<?xml version="1.0" encoding="iso-8859-1"?>
<!-- Generator: Adobe Illustrator 18.0.0, SVG Export Plug-In . SVG Version: 6.00 Build 0)  -->
<!DOCTYPE svg PUBLIC "-//W3C//DTD SVG 1.1//EN" "http://www.w3.org/Graphics/SVG/1.1/DTD/svg11.dtd">
<svg version="1.1" id="Capa_1" xmlns="http://www.w3.org/2000/svg" xmlns:xlink="http://www.w3.org/1999/xlink" x="0px" y="0px"
	 viewBox="0 0 443.556 443.556" style="enable-background:new 0 0 443.556 443.556;" xml:space="preserve">
<g>
	<path d="M207.673,372.331c-6.767-2.729-14.132-3.392-21.298-1.918l-7.392,1.521c-4.845,0.997-9.807,0.094-13.978-2.543
		l-6.334-4.002c-6.203-3.914-13.344-5.882-20.642-5.699c-0.061,0-0.122,0.001-0.183,0.003c-6.322,0.169-12.331-2.815-15.996-7.987
		c-0.085-0.12-0.173-0.238-0.264-0.354c-4.18-5.757-9.879-10.144-16.528-12.721c-3.286-1.414-7.239-0.774-9.92,1.909
		c-3.515,3.515-3.51,9.218,0.005,12.733c0.909,0.909,2.002,1.613,3.206,2.064c3.567,1.337,6.611,3.679,8.804,6.774
		c0.086,0.122,0.175,0.24,0.266,0.356c7.141,9.832,18.6,15.501,30.787,15.221c0.07,0,0.14-0.002,0.21-0.004
		c3.771-0.103,7.445,0.903,10.644,2.922l6.328,3.999c5.972,3.776,12.774,5.728,19.704,5.728c2.5,0,5.02-0.255,7.52-0.77l7.389-1.52
		c3.687-0.758,7.471-0.418,10.942,0.981c4.61,1.86,9.854-0.372,11.712-4.982C214.513,379.434,212.283,374.19,207.673,372.331z"/>
	<path d="M338.65,338.571c-6.711,2.568-12.464,6.975-16.675,12.771c-0.094,0.118-0.184,0.239-0.271,0.363
		c-3.663,5.17-9.612,8.153-15.995,7.986c-0.041-0.001-0.101-0.002-0.159-0.002c-7.341-0.19-14.458,1.78-20.669,5.701l-6.333,4.001
		c-4.168,2.637-9.133,3.54-13.977,2.542l-7.392-1.521c-7.167-1.472-14.53-0.81-21.297,1.919c-4.609,1.858-6.841,7.102-4.982,11.712
		s7.098,6.841,11.713,4.982c3.473-1.399,7.257-1.74,10.941-0.982l7.388,1.52c2.502,0.515,5.021,0.77,7.522,0.77
		c6.93,0,13.732-1.952,19.701-5.726l6.326-3.998c3.204-2.022,6.894-3.03,10.647-2.925c0.048,0.001,0.117,0.002,0.185,0.003
		c12.198,0.306,23.659-5.378,30.806-15.211c0.094-0.12,0.185-0.242,0.273-0.366c2.191-3.095,5.235-5.437,8.803-6.774
		c1.138-0.427,2.178-1.079,3.056-1.917l0.011-0.01c3.596-3.432,3.723-9.124,0.291-12.719
		C345.934,337.935,341.976,337.216,338.65,338.571z"/>
	<path d="M304.544,124.234l-8.156,5.153c-5.958,3.765-13.043,5.055-19.945,3.632l-9.532-1.964
		c-8.728-1.798-17.707-0.987-25.972,2.346l-9.024,3.64c-6.537,2.637-13.738,2.636-20.274,0l-9.025-3.64
		c-8.265-3.333-17.247-4.144-25.972-2.346l-9.532,1.964c-6.904,1.422-13.986,0.132-19.944-3.632l-8.158-5.154
		c-4.202-2.654-9.761-1.401-12.416,2.802c-2.655,4.202-1.4,9.761,2.802,12.416l8.158,5.154c9.917,6.265,21.701,8.411,33.191,6.044
		l9.532-1.964c5.245-1.08,10.642-0.593,15.606,1.409l9.025,3.64c5.439,2.194,11.154,3.291,16.87,3.291s11.43-1.097,16.871-3.291
		l9.023-3.64c4.967-2.002,10.363-2.489,15.606-1.409l9.532,1.964c11.49,2.367,23.275,0.22,33.192-6.044l8.157-5.154
		c4.202-2.655,5.456-8.213,2.801-12.416C314.307,122.834,308.75,121.578,304.544,124.234z"/>
	<path d="M167.112,112.955l9.532,1.964c8.726,1.798,17.708,0.987,25.972-2.346l9.023-3.64c6.538-2.635,13.738-2.636,20.274,0
		l9.025,3.64c5.4,2.178,11.105,3.279,16.847,3.279c3.045,0,6.101-0.31,9.125-0.933l9.532-1.964
		c4.868-1.003,8.001-5.763,6.998-10.631c-1.003-4.87-5.771-8-10.631-6.999l-9.532,1.964c-5.242,1.082-10.64,0.594-15.605-1.409
		l-9.025-3.64c-10.88-4.388-22.86-4.386-33.74,0l-9.024,3.64c-4.966,2.002-10.363,2.489-15.607,1.409l-9.532-1.964
		c-4.862-1.001-9.627,2.131-10.631,6.999C159.11,107.192,162.244,111.952,167.112,112.955z"/>
	<path d="M437.105,6.773c-5.073-5.357-12.429-7.752-19.678-6.405C362.212,10.631,316.051,25.525,282.345,36.4
		c-23.882,7.705-42.786,13.805-51.536,13.805c-0.075,0-0.151,0-0.226-0.001c-5.844-0.072-11.768-0.072-17.612,0
		c-8.658,0.124-27.675-6.032-51.761-13.803C127.505,25.525,81.343,10.631,26.128,0.369C18.882-0.977,11.524,1.416,6.45,6.774
		c-5.042,5.323-7.021,12.743-5.297,19.848c13.729,56.542,45.555,111.534,54.63,126.502c-7.033,9.065-14.498,18.927-22.406,29.606
		c-4.445,6-8.493,12.372-12.032,18.937c-0.745,1.382-1.107,2.918-1.076,4.456l-0.958,23.483c-0.123,4.613-1.433,9.148-3.79,13.116
		l-2.722,4.583c-7.271,12.242-8.316,27.386-2.797,40.512l1.743,4.145c1.947,4.631,2.568,9.704,1.797,14.668l-0.128,0.823
		c-2.316,14.897,2.921,29.889,14.011,40.102c3.996,3.681,6.767,8.42,8.018,13.719c3.462,14.664,13.952,26.576,28.059,31.867
		c0.014,0.005,0.029,0.01,0.044,0.016c5.062,1.905,9.393,5.239,12.53,9.645c0.007,0.01,0.015,0.021,0.022,0.031
		c8.728,12.292,22.955,19.377,37.978,18.972c0.009,0,0.098-0.002,0.107-0.003c5.389-0.147,10.654,1.297,15.215,4.18l8.158,5.154
		c9.916,6.265,21.702,8.411,33.191,6.044l9.532-1.964c5.245-1.082,10.641-0.594,15.606,1.409l9.024,3.64
		c5.44,2.194,11.154,3.291,16.87,3.291c5.714,0,11.431-1.097,16.869-3.291l9.025-3.64c4.965-2.002,10.361-2.49,15.606-1.409
		l9.531,1.964c11.486,2.365,23.274,0.221,33.191-6.044l8.159-5.154c4.56-2.881,9.815-4.319,15.294-4.177
		c15.086,0.415,29.277-6.681,38.005-18.971c0.009-0.012,0.017-0.023,0.024-0.035c3.143-4.413,7.484-7.75,12.57-9.657
		c14.086-5.282,24.565-17.167,28.043-31.8c0.007-0.026,0.013-0.052,0.019-0.078c1.249-5.287,4.021-10.026,8.017-13.707
		c11.089-10.214,16.326-25.206,14.009-40.104l-0.127-0.821c-0.772-4.964-0.15-10.037,1.797-14.668l1.742-4.146
		c5.52-13.125,4.474-28.27-2.797-40.511l-2.722-4.582c-2.356-3.969-3.666-8.504-3.789-13.117l-0.774-23.133
		c0,0-0.63-4.579-2.089-6.321c-3.367-6.078-7.131-11.933-11.203-17.421c-7.908-10.68-15.374-20.542-22.407-29.608
		c9.075-14.969,40.901-69.96,54.63-126.503C444.127,19.517,442.147,12.097,437.105,6.773z M18.645,22.376
		c-0.387-1.594,0.381-2.705,0.874-3.225c0.512-0.541,1.625-1.401,3.32-1.085c0.021,0.004,0.043,0.008,0.065,0.012
		c4.413,0.823,8.745,2.038,12.934,3.651c25.876,9.964,74.904,34.331,81.72,62.72c-11.641,8.818-28.315,26.736-49.817,53.512
		C56.252,118.185,30.255,70.193,18.645,22.376z M416.961,280.84l-1.743,4.146c-3.24,7.708-4.274,16.148-2.989,24.411l0.127,0.821
		c1.393,8.952-1.755,17.96-8.419,24.098c-6.634,6.111-11.24,13.977-13.324,22.75c-0.006,0.024-0.012,0.048-0.017,0.072
		c-2.08,8.812-8.384,15.97-16.873,19.153c-8.464,3.174-15.704,8.747-20.937,16.117c-0.007,0.009-0.014,0.019-0.021,0.029
		c-5.246,7.369-13.787,11.607-22.898,11.372c-8.974-0.246-17.731,2.16-25.32,6.955l-8.158,5.154
		c-5.958,3.765-13.043,5.055-19.945,3.632l-9.531-1.964c-8.725-1.797-17.707-0.987-25.972,2.346l-9.025,3.64
		c-6.537,2.637-13.736,2.637-20.274,0l-9.025-3.64c-8.264-3.333-17.247-4.144-25.971-2.346l-9.532,1.964
		c-6.904,1.422-13.986,0.133-19.944-3.632l-8.158-5.153c-7.59-4.796-16.355-7.194-25.294-6.957c-0.009,0-0.098,0.002-0.107,0.003
		c-9.034,0.257-17.574-4.005-22.82-11.377c-0.006-0.008-0.012-0.017-0.018-0.025c-5.233-7.37-12.474-12.943-20.937-16.117
		c-0.013-0.005-0.026-0.01-0.041-0.015c-8.463-3.185-14.754-10.336-16.834-19.149c-2.077-8.798-6.689-16.687-13.339-22.812
		c-6.663-6.137-9.811-15.145-8.419-24.097l0.128-0.823c1.285-8.262,0.25-16.702-2.99-24.41l-1.743-4.145
		c-3.316-7.887-2.688-16.987,1.681-24.343l2.722-4.583c1.022-1.722,1.92-3.51,2.702-5.346l7.182,20.921
		c5.365,15.629,17.201,28.215,32.472,34.529c7.056,2.917,14.537,4.369,22.008,4.369c5.043,0,10.076-0.683,14.976-2.001
		c0.674,1.874,1.469,3.719,2.399,5.521l0.327,0.643c7.767,15.035,23.298,24.408,40.128,24.408c0.876,0,1.759-0.025,2.642-0.077
		l0.731-0.046c8.17-0.478,16.218-2.092,23.919-4.708c10.756,10.96,25.467,17.133,41.296,17.133c15.827,0,30.538-6.172,41.293-17.131
		c7.692,2.614,15.726,4.227,23.873,4.703l0.83,0.053c0.879,0.051,1.754,0.077,2.627,0.076c16.789,0,32.327-9.377,40.12-24.463
		l0.274-0.541c0.946-1.834,1.753-3.712,2.435-5.619c4.958,1.352,10.055,2.05,15.162,2.05c7.471,0,14.953-1.452,22.008-4.369
		c15.271-6.314,27.106-18.9,32.473-34.529l7.091-20.656c0.755,1.743,1.62,3.442,2.594,5.082l2.722,4.583
		C419.649,263.853,420.277,272.954,416.961,280.84z M243.979,298.738l-3.624-3.185c-5.459-4.806-8.82-11.517-9.458-18.701
		c2.998-1.553,6.935-3.932,12.136-7.583c9.021-6.333,13.204-10.586,15.125-13.816c4.63-1.266,9.402-1.915,14.199-1.915
		c13.676,0,26.711,5.144,36.697,14.479c9.18,8.598,11.542,22.45,5.719,33.733l-0.272,0.538c-4.912,9.508-14.997,15.241-25.63,14.629
		l-0.828-0.053C271.833,315.916,256.185,309.48,243.979,298.738z M245.199,321.827c-6.674,4.799-14.801,7.432-23.421,7.432
		c-8.62,0-16.747-2.633-23.421-7.432c4.628-2.789,9.024-5.978,13.101-9.567l3.637-3.196c2.504-2.205,4.739-4.655,6.683-7.297
		c1.945,2.644,4.182,5.096,6.688,7.302l3.625,3.186C236.172,315.846,240.57,319.037,245.199,321.827z M221.778,261.323
		c-3.784-1.843-11.032-6.628-15.994-10.529h31.988C232.81,254.695,225.562,259.48,221.778,261.323z M212.658,276.852
		c-0.637,7.184-3.998,13.895-9.451,18.696l-3.636,3.194c-12.201,10.738-27.849,17.174-44.108,18.125l-0.729,0.046
		c-10.681,0.626-20.769-5.118-25.654-14.573l-0.325-0.639c-5.797-11.234-3.435-25.085,5.738-33.677
		c9.994-9.341,23.03-14.485,36.705-14.485c4.797,0,9.571,0.649,14.198,1.915c1.921,3.23,6.104,7.483,15.126,13.816
		C205.723,272.921,209.66,275.299,212.658,276.852z M395.719,193.451c3.19,4.3,6.167,8.854,8.878,13.579l-18.749,54.615
		c-3.688,10.746-11.826,19.398-22.325,23.74c-8.849,3.66-18.67,3.951-27.646,0.961c-0.597-11.716-5.592-23.106-14.523-31.472
		c-13.339-12.468-30.739-19.335-48.995-19.335c-3.513,0-7.016,0.265-10.484,0.777l10.199-9.506
		c6.284,3.826,13.51,5.885,21.005,5.885c22.331,0,40.498-18.167,40.498-40.499c0-5.3-1.017-10.466-3.021-15.355
		c-0.485-1.182-1.217-2.248-2.146-3.125c-7.552-7.138-17.428-11.068-27.808-11.068c-22.331,0-40.498,18.167-40.498,40.499
		c0,3.13,0.364,6.212,1.067,9.219l-21.918,20.429h-34.036l-14.783-19.4c0.873-3.332,1.323-6.76,1.323-10.248
		c0-22.331-18.167-40.499-40.499-40.499c-10.381,0-20.257,3.931-27.808,11.069c-0.929,0.878-1.66,1.943-2.145,3.126
		c-2.005,4.89-3.021,10.055-3.021,15.354c0,22.331,18.167,40.499,40.498,40.499c7.016,0,13.798-1.802,19.791-5.169l7.257,9.523
		c-4.809-1.001-9.71-1.51-14.63-1.51c-18.255,0-35.655,6.867-49.002,19.342c-8.948,8.381-13.941,19.801-14.525,31.533
		c-8.921,2.917-18.66,2.601-27.441-1.03c-10.499-4.341-18.636-12.994-22.325-23.739l-18.822-54.833
		c2.656-4.612,5.593-9.095,8.758-13.368c54.234-73.241,75.919-92.21,84.018-96.999c2.918-1.725,4.619-4.944,4.401-8.327
		c-1.151-17.832-12.683-34.995-34.324-51.193c20.304,5.815,38.347,11.635,53.749,16.605c27.649,8.921,45.928,14.815,57.511,14.672
		c5.696-0.071,11.472-0.071,17.167,0c11.602,0.148,29.861-5.75,57.512-14.672c15.401-4.969,33.444-10.79,53.748-16.605
		c-21.641,16.199-33.173,33.362-34.324,51.193c-0.218,3.383,1.482,6.601,4.4,8.327C319.796,101.235,341.481,120.204,395.719,193.451
		z M278.103,203.146c0-12.406,10.093-22.499,22.498-22.499c5.106,0,9.996,1.715,13.963,4.866c0.672,2.156,1.012,4.396,1.012,6.683
		c0,12.406-10.093,22.499-22.498,22.499c-5.106,0-9.996-1.715-13.963-4.866C278.443,207.673,278.103,205.433,278.103,203.146z
		 M173.756,203.146c0,2.286-0.34,4.526-1.012,6.683c-3.967,3.151-8.855,4.866-13.963,4.866c-12.405,0-22.498-10.093-22.498-22.499
		c0-2.286,0.34-4.527,1.012-6.683c3.967-3.15,8.855-4.866,13.962-4.866C163.663,180.647,173.756,190.74,173.756,203.146z
		 M424.911,22.375c-11.594,47.755-37.606,95.791-49.098,115.583c-21.501-26.774-38.174-44.692-49.815-53.51
		c6.816-28.389,55.844-52.755,81.72-62.72c4.189-1.613,8.521-2.829,12.934-3.651c0.022-0.004,0.043-0.008,0.064-0.012
		c1.692-0.317,2.808,0.544,3.32,1.085C424.529,19.671,425.297,20.782,424.911,22.375z"/>
</g>
<g>
</g>
<g>
</g>
<g>
</g>
<g>
</g>
<g>
</g>
<g>
</g>
<g>
</g>
<g>
</g>
<g>
</g>
<g>
</g>
<g>
</g>
<g>
</g>
<g>
</g>
<g>
</g>
<g>
</g>
</svg>
