<?xml version="1.0" encoding="iso-8859-1"?>
<!-- Generator: Adobe Illustrator 18.0.0, SVG Export Plug-In . SVG Version: 6.00 Build 0)  -->
<!DOCTYPE svg PUBLIC "-//W3C//DTD SVG 1.1//EN" "http://www.w3.org/Graphics/SVG/1.1/DTD/svg11.dtd">
<svg version="1.1" id="Capa_1" xmlns="http://www.w3.org/2000/svg" xmlns:xlink="http://www.w3.org/1999/xlink" x="0px" y="0px"
	 viewBox="0 0 470.354 470.354" style="enable-background:new 0 0 470.354 470.354;" xml:space="preserve">
<g>
	<path d="M163.242,415.753c-17.35-6.565-27.445-24.559-24.005-42.787l1.286-6.816c0.476-2.518-0.146-5.12-1.707-7.152
		s-3.915-3.302-6.471-3.492c-37.156-2.756-48.687-55.082-48.853-55.858c-1.013-4.862-5.773-7.987-10.638-6.976
		c-4.867,1.009-7.995,5.772-6.985,10.64c0.138,0.666,3.486,16.488,12.743,32.86c10.867,19.219,25.444,31.397,42.559,35.703
		c-3.845,26.041,10.885,51.325,35.7,60.714c1.049,0.397,2.125,0.585,3.184,0.585c3.634,0,7.057-2.217,8.419-5.817
		C170.234,422.707,167.891,417.512,163.242,415.753z"/>
	<path d="M397.494,292.672c-4.871-1.011-9.63,2.119-10.64,6.985c-0.11,0.531-11.43,53.073-48.851,55.849
		c-2.556,0.19-4.909,1.46-6.471,3.492s-2.183,4.634-1.707,7.152l1.286,6.816c3.44,18.228-6.655,36.223-24.005,42.787
		c-4.649,1.759-6.992,6.954-5.232,11.603c1.362,3.6,4.785,5.818,8.419,5.817c1.059,0,2.135-0.188,3.184-0.585
		c24.817-9.39,39.548-34.672,35.7-60.714c17.115-4.305,31.691-16.484,42.559-35.703c9.257-16.372,12.605-32.194,12.743-32.86
		C405.488,298.444,402.361,293.681,397.494,292.672z"/>
	<path d="M437.713,4.095c-1.733-2.666-4.751-4.226-7.919-4.087c-10.915,0.453-31.629,7.46-85.274,62.84
		c-9.507,9.814-18.661,19.737-26.818,28.817c-54.78,8.425-110.273,8.425-165.055,0c-8.156-9.079-17.31-19.003-26.815-28.817
		c-25.69-26.523-62.48-61.894-85.27-62.84c-3.186-0.136-6.187,1.422-7.919,4.087C11.059,37.293,23.638,133.89,47.82,206.22
		c-4.242,8.643-6.948,18.065-7.596,28.329c-0.554,3.816-3.96,29.635-0.167,63.647c5.364,48.098,22.808,89.701,50.444,120.313
		c40.699,45.08,107.866,51.844,144.431,51.844c0.16,0,0.311,0,0.47,0c36.582-0.001,103.749-6.767,144.446-51.844
		c27.637-30.611,45.08-72.215,50.444-120.313c3.793-34.01,0.388-59.828-0.167-63.647c-0.649-10.269-3.356-19.695-7.602-28.341
		c12.123-36.252,21.054-77.632,24.59-114.21C449.932,62.83,450.59,23.902,437.713,4.095z M308.426,129.611
		c5.103-5.996,12.06-14.05,20.146-23.105l-7.331,27.276C316.762,132.232,312.461,130.842,308.426,129.611z M149.108,133.781
		l-7.33-27.271c8.087,9.058,15.044,17.113,20.141,23.102C157.886,130.843,153.586,132.232,149.108,133.781z M45.029,19.238
		c9.139,3.435,28.648,15.638,67.873,56.134c0.867,0.895,1.731,1.792,2.592,2.688l16.687,62.084
		c-25.422,10.359-53.225,25.575-71.563,46.915C40.651,120.857,33.762,47.382,45.029,19.238z M412.345,296.711
		c-3.491,30.756-14.281,74.761-45.858,109.737c-15.486,17.153-53.089,45.908-131.068,45.906c-0.166,0-0.335,0-0.503,0
		c-77.955,0-115.568-28.754-131.054-45.906c-31.577-34.976-42.366-78.98-45.858-109.737c-3.839-33.818,0.034-59.586,0.072-59.835
		c0.045-0.288,0.076-0.579,0.093-0.87c4.043-70.08,136.863-96.416,138.2-96.674c4.882-0.935,8.082-5.65,7.147-10.532
		c-0.934-4.882-5.646-8.08-10.532-7.147c-0.954,0.183-5.303,1.04-11.959,2.682c-2.45-2.922-5.945-7.057-10.256-12.063
		c21.416,2.479,42.91,3.735,64.406,3.735c21.494,0,42.987-1.256,64.402-3.734c-4.304,4.998-7.799,9.131-10.256,12.062
		c-6.654-1.641-11.002-2.499-11.955-2.681c-4.882-0.936-9.598,2.265-10.532,7.147c-0.935,4.882,2.265,9.597,7.147,10.532
		c0.341,0.065,34.569,6.727,68.985,22.583c30.435,14.022,67.147,38.259,69.215,74.09c0.016,0.286,0.048,0.579,0.091,0.863
		C412.311,237.125,416.184,262.893,412.345,296.711z M409.736,187.064c-18.338-21.342-46.144-36.56-71.567-46.919l16.686-62.084
		c0.861-0.897,1.725-1.793,2.593-2.689c39.228-40.496,58.738-52.7,67.877-56.135C436.592,47.383,429.703,120.861,409.736,187.064z"
		/>
	<path d="M276.52,310.093c0.75,0,1.513-0.094,2.272-0.292c4.811-1.251,7.696-6.166,6.444-10.976
		c-0.242-0.931-0.435-1.862-0.604-2.793c5.57,5.947,12.813,10.384,21.112,12.46c3.524,0.882,7.09,1.318,10.631,1.318
		c7.783,0,15.447-2.106,22.294-6.212c9.963-5.976,17.002-15.473,19.821-26.743c0.227-0.908,0.413-1.82,0.581-2.734
		c2.41,0.843,5.159,0.665,7.532-0.728c4.286-2.517,5.72-8.032,3.202-12.318c-12.549-21.368-38.081-31.928-62.085-25.685
		c-29.74,7.737-47.642,38.227-39.905,67.968C268.87,307.407,272.521,310.093,276.52,310.093z M312.253,252.809
		c9.437-2.454,19.219-1.068,27.428,3.351c2.233,5.133,2.719,10.846,1.348,16.327c-1.652,6.605-5.778,12.172-11.618,15.675
		c-5.839,3.502-12.692,4.522-19.298,2.869c-10.859-2.716-18.65-12.308-19.268-23.301
		C295.808,260.615,303.22,255.159,312.253,252.809z"/>
	<path d="M103.745,273.392c2.374,1.394,5.123,1.572,7.532,0.729c0.168,0.914,0.354,1.826,0.581,2.734
		c2.819,11.27,9.858,20.767,19.821,26.743c6.848,4.107,14.511,6.213,22.294,6.212c3.541,0,7.107-0.436,10.631-1.318
		c8.298-2.076,15.541-6.513,21.111-12.46c-0.169,0.931-0.361,1.862-0.604,2.793c-1.251,4.81,1.634,9.725,6.444,10.976
		c0.76,0.198,1.522,0.292,2.272,0.292c3.999,0,7.65-2.686,8.704-6.736c7.737-29.74-10.164-60.231-39.905-67.968
		c-24.005-6.244-49.535,4.318-62.085,25.685C98.025,265.359,99.459,270.874,103.745,273.392z M158.096,252.809
		c9.033,2.35,16.445,7.806,21.408,14.92c-0.617,10.994-8.408,20.585-19.267,23.302c-6.606,1.653-13.46,0.633-19.299-2.869
		c-5.84-3.503-9.966-9.069-11.618-15.675c-1.371-5.48-0.885-11.194,1.349-16.327C138.879,251.74,148.66,250.354,158.096,252.809z"/>
	<path d="M283.908,417.337l-25.143-7.322c-6.5-1.893-11.53-6.901-13.643-13.095c4.086-2.12,7.5-5.502,9.58-9.752
		c0.927-1.895,2.89-3.119,4.999-3.119c10.109,0,18.333-8.224,18.333-18.333c0-10.109-8.224-18.333-18.333-18.333h-49.334
		c-10.109,0-18.333,8.224-18.333,18.333c0,10.109,8.225,18.333,18.333,18.333c2.109,0,4.072,1.224,5,3.119
		c2.08,4.25,5.493,7.632,9.58,9.752c-2.113,6.193-7.143,11.202-13.643,13.095l-25.143,7.322c-4.772,1.39-7.515,6.385-6.125,11.157
		c1.39,4.772,6.385,7.514,11.157,6.125l25.144-7.322c7.473-2.176,13.913-6.542,18.698-12.27c4.785,5.727,11.225,10.093,18.699,12.27
		l25.143,7.322c0.84,0.245,1.687,0.361,2.52,0.361c3.899,0,7.492-2.554,8.637-6.486
		C291.423,423.722,288.681,418.726,283.908,417.337z M210.368,366.05c-0.184,0-0.333-0.149-0.333-0.333s0.149-0.333,0.333-0.333
		h49.334c0.184,0,0.333,0.15,0.333,0.333s-0.149,0.333-0.333,0.333c-8.931,0-17.24,5.183-21.166,13.205
		c-0.633,1.293-1.972,2.128-3.412,2.128h-0.176c-1.44,0-2.779-0.835-3.412-2.128C227.608,371.233,219.299,366.05,210.368,366.05z"/>
</g>
<g>
</g>
<g>
</g>
<g>
</g>
<g>
</g>
<g>
</g>
<g>
</g>
<g>
</g>
<g>
</g>
<g>
</g>
<g>
</g>
<g>
</g>
<g>
</g>
<g>
</g>
<g>
</g>
<g>
</g>
</svg>
