<svg height="512pt" viewBox="0 0 512 512" width="512pt" xmlns="http://www.w3.org/2000/svg"><path d="m21.332031 42.667969h490.667969v426.664062h-490.667969zm0 0" fill="#f2f2f2"/><path d="m42.667969 437.332031v-362.664062c0-5.890625 4.777343-10.667969 10.664062-10.667969h426.667969c5.886719 0 10.667969 4.777344 10.667969 10.667969v362.664062c0 5.890625-4.78125 10.667969-10.667969 10.667969h-426.667969c-5.886719 0-10.664062-4.777344-10.664062-10.667969zm0 0" fill="#f5f5f5"/><path d="m512 117.332031h-490.667969v-64c0-5.886719 4.78125-10.664062 10.667969-10.664062h469.332031c5.890625 0 10.667969 4.777343 10.667969 10.664062zm0 0" fill="#fa5419"/><path d="m480 96h-426.667969c-5.886719 0-10.664062-4.777344-10.664062-10.667969v-10.664062c0-5.890625 4.777343-10.667969 10.664062-10.667969h426.667969c5.886719 0 10.667969 4.777344 10.667969 10.667969v10.664062c0 5.890625-4.78125 10.667969-10.667969 10.667969zm0 0" fill="#fa7241"/><path d="m234.667969 394.667969c0 64.800781-52.535157 117.332031-117.335938 117.332031s-117.332031-52.53125-117.332031-117.332031 52.53125-117.335938 117.332031-117.335938 117.335938 52.535157 117.335938 117.335938zm0 0" fill="#fdd55b"/><path d="m213.332031 394.667969c0 53.019531-42.980469 96-96 96s-96-42.980469-96-96 42.980469-96 96-96 96 42.980469 96 96zm0 0" fill="#fedf84"/><path d="m117.332031 416h-53.332031v-21.332031h42.667969v-53.335938h21.332031v64c0 5.898438-4.769531 10.667969-10.667969 10.667969zm0 0" fill="#ebbf3d"/><g fill="#fdd55b"><path d="m128 74.667969h-21.332031c-5.890625 0-10.667969-4.78125-10.667969-10.667969v-53.332031c0-5.890625 4.777344-10.667969 10.667969-10.667969h21.332031c5.886719 0 10.667969 4.777344 10.667969 10.667969v53.332031c0 5.886719-4.78125 10.667969-10.667969 10.667969zm0 0"/><path d="m426.667969 74.667969h-21.335938c-5.886719 0-10.664062-4.78125-10.664062-10.667969v-53.332031c0-5.890625 4.777343-10.667969 10.664062-10.667969h21.335938c5.886719 0 10.664062 4.777344 10.664062 10.667969v53.332031c0 5.886719-4.777343 10.667969-10.664062 10.667969zm0 0"/><path d="m128 224h-42.667969c-5.886719 0-10.664062-4.777344-10.664062-10.667969v-21.332031c0-5.886719 4.777343-10.667969 10.664062-10.667969h42.667969c5.886719 0 10.667969 4.78125 10.667969 10.667969v21.332031c0 5.890625-4.78125 10.667969-10.667969 10.667969zm0 0"/><path d="m234.667969 224h-42.667969c-5.886719 0-10.667969-4.777344-10.667969-10.667969v-21.332031c0-5.886719 4.78125-10.667969 10.667969-10.667969h42.667969c5.886719 0 10.664062 4.78125 10.664062 10.667969v21.332031c0 5.890625-4.777343 10.667969-10.664062 10.667969zm0 0"/><path d="m341.332031 224h-42.664062c-5.890625 0-10.667969-4.777344-10.667969-10.667969v-21.332031c0-5.886719 4.777344-10.667969 10.667969-10.667969h42.664062c5.890625 0 10.667969 4.78125 10.667969 10.667969v21.332031c0 5.890625-4.777344 10.667969-10.667969 10.667969zm0 0"/><path d="m448 224h-42.667969c-5.886719 0-10.664062-4.777344-10.664062-10.667969v-21.332031c0-5.886719 4.777343-10.667969 10.664062-10.667969h42.667969c5.886719 0 10.667969 4.78125 10.667969 10.667969v21.332031c0 5.890625-4.78125 10.667969-10.667969 10.667969zm0 0"/><path d="m341.332031 309.332031h-42.664062c-5.890625 0-10.667969-4.777343-10.667969-10.664062v-21.335938c0-5.886719 4.777344-10.664062 10.667969-10.664062h42.664062c5.890625 0 10.667969 4.777343 10.667969 10.664062v21.335938c0 5.886719-4.777344 10.664062-10.667969 10.664062zm0 0"/><path d="m448 309.332031h-42.667969c-5.886719 0-10.664062-4.777343-10.664062-10.664062v-21.335938c0-5.886719 4.777343-10.664062 10.664062-10.664062h42.667969c5.886719 0 10.667969 4.777343 10.667969 10.664062v21.335938c0 5.886719-4.78125 10.664062-10.667969 10.664062zm0 0"/><path d="m341.332031 394.667969h-42.664062c-5.890625 0-10.667969-4.78125-10.667969-10.667969v-21.332031c0-5.890625 4.777344-10.667969 10.667969-10.667969h42.664062c5.890625 0 10.667969 4.777344 10.667969 10.667969v21.332031c0 5.886719-4.777344 10.667969-10.667969 10.667969zm0 0"/><path d="m448 394.667969h-42.667969c-5.886719 0-10.664062-4.78125-10.664062-10.667969v-21.332031c0-5.890625 4.777343-10.667969 10.664062-10.667969h42.667969c5.886719 0 10.667969 4.777344 10.667969 10.667969v21.332031c0 5.886719-4.78125 10.667969-10.667969 10.667969zm0 0"/></g></svg>